<svg id="Layer_1" data-name="Layer 1" xmlns="http://www.w3.org/2000/svg" viewBox="0 0 2869.41 441.47"><defs><style>.cls-1{fill:#ee9e21;}.cls-2{fill:#6255a4;}</style></defs><rect class="cls-1" x="238.7" y="74.12" width="307.91" height="307.91" rx="45.09" transform="translate(208.48 -239.88) rotate(45)"/><rect class="cls-2" x="113.18" y="117.21" width="307.91" height="307.91" rx="44.4" transform="translate(202.18 -138.5) rotate(45)"/><path class="cls-2" d="M735.08,338.35q-20.24,0-36.48-7.22A72,72,0,0,1,670.79,309Q648,279.4,648,226.69q0-35.25,10.4-60.31t30-38.43q19.56-13.35,46.73-13.36a106.54,106.54,0,0,1,25.2,2.74,91,91,0,0,1,22.61,9.11v29.9a78.24,78.24,0,0,0-23-13.44,72,72,0,0,0-25-4.62q-28.17,0-42.32,22t-14.16,66.3q0,88.13,56.77,88.12a72,72,0,0,0,25-4.62,79.09,79.09,0,0,0,22.68-13.44v29.9a112,112,0,0,1-22.82,9A102.71,102.71,0,0,1,735.08,338.35Z" transform="translate(-67.8 -29.03)"/><path class="cls-2" d="M877.36,118.49h35.4l66,215.67H948.58L932.69,278H857.14l-15.6,56.19H811.35Zm48.4,136.08L895,144.2,864.22,254.57Z" transform="translate(-67.8 -29.03)"/><path class="cls-2" d="M1015.17,118.49h29.33V309.6h104.15v24.56H1015.17Z" transform="translate(-67.8 -29.03)"/><path class="cls-2" d="M1251.21,338.35q-36.54,0-54.31-27.59t-17.77-84.22q0-56.76,17.91-84.21,18.06-27.75,54.17-27.74,17.77,0,31.49,6.64t23,21.1q17.77,27.73,17.77,84.21t-17.77,84.07q-9.24,14.46-23,21.09T1251.21,338.35Zm0-23.69q22.24,0,32.07-20.37,9.67-19.79,9.68-67.75t-9.68-67.89q-9.83-20.37-32.07-20.37-22,0-31.78,20.37-9.83,20.81-9.82,67.89t9.82,67.75Q1229.26,314.66,1251.21,314.66Z" transform="translate(-67.8 -29.03)"/><path class="cls-2" d="M1361,118.49h60.09q35.69,0,54.46,16,18.92,16.18,18.92,45.8a62.62,62.62,0,0,1-2.89,20,46.21,46.21,0,0,1-8.66,15.39q-11.42,13.57-32.79,16.61a38.5,38.5,0,0,1,19.21,10.83,71.58,71.58,0,0,1,8.74,11.78q4.7,7.57,11.05,20.29l29.32,58.94h-31.34l-25.72-54.46a145.84,145.84,0,0,0-10.61-19.35q-5-7.38-9.32-10.7A29.11,29.11,0,0,0,1431,244.6,49.61,49.61,0,0,0,1418.2,243h-27.88v91.15H1361ZM1422.25,219q20.94,0,31.2-9.39t10.25-28.46q0-18.92-10.83-28.89a36.78,36.78,0,0,0-13.07-7.22,60,60,0,0,0-18.71-2.6h-30.77V219Z" transform="translate(-67.8 -29.03)"/><path class="cls-2" d="M1547.49,309.6h45.21V143.05h-45.21V118.49h119.75v24.56H1622V309.6h45.21v24.56H1547.49Z" transform="translate(-67.8 -29.03)"/><path class="cls-2" d="M1725,118.49h128v24.56H1754.2V206.9h94.47v24.55H1754.2V309.6h101.55v24.56H1725Z" transform="translate(-67.8 -29.03)"/><path class="cls-2" d="M1959,338.35a144.94,144.94,0,0,1-30.77-3.32,182.86,182.86,0,0,1-30.77-9.68V294.29A143.82,143.82,0,0,0,1929,309.75a92.39,92.39,0,0,0,29.61,4.91q22.11,0,34.53-9.82,12.27-9.82,12.28-28.46,0-15.45-8.38-23.84a36,36,0,0,0-11.63-7.8,103.63,103.63,0,0,0-17.84-5.49l-15.6-3.61a135.55,135.55,0,0,1-25.5-8.23,58.94,58.94,0,0,1-18.13-12.28q-13.57-13.57-13.58-36.84,0-29.31,19.51-46.51a64.6,64.6,0,0,1,22.17-12.71,89.45,89.45,0,0,1,29.4-4.48,132.57,132.57,0,0,1,26.14,2.74q6.65,1.45,13.94,3.54t14.95,5v29.61a115.7,115.7,0,0,0-26.58-12.86,87,87,0,0,0-26.86-4.33q-20.67,0-32.72,9.68t-12.07,26.58a31.88,31.88,0,0,0,2.1,12.35,25.21,25.21,0,0,0,5.85,8.59q8.24,7.8,29.32,12.72l15.32,3.46q29.9,6.79,44,22.25,14,14.88,14,41,0,16.47-5.06,28.1a51.82,51.82,0,0,1-13.87,19.14Q1995.45,338.35,1959,338.35Z" transform="translate(-67.8 -29.03)"/><path class="cls-1" d="M2113.12,204h-47.63V186.73h115.67V204h-47.43V338.35h-20.61Z" transform="translate(-67.8 -29.03)"/><path class="cls-1" d="M2200.45,186.73h42.25q25.08,0,38.28,11.27t13.3,32.19a44,44,0,0,1-2,14.07,32.33,32.33,0,0,1-6.09,10.81q-8,9.56-23,11.68a27.08,27.08,0,0,1,13.5,7.62,49.58,49.58,0,0,1,6.15,8.27q3.3,5.34,7.77,14.27l20.61,41.44h-22L2271,300.06a102.64,102.64,0,0,0-7.47-13.61,32.05,32.05,0,0,0-6.55-7.51,20.35,20.35,0,0,0-7.36-3.56,35.13,35.13,0,0,0-9-1.11h-19.6v64.08h-20.62Zm43.06,70.68q14.72,0,21.93-6.6t7.21-20q0-13.31-7.61-20.31a26,26,0,0,0-9.19-5.08,42.4,42.4,0,0,0-13.15-1.82h-21.63v53.82Z" transform="translate(-67.8 -29.03)"/><path class="cls-1" d="M2361.31,186.73h24.88l46.41,151.62h-21.23l-11.17-39.51h-53.11l-11,39.51H2314.9Zm34,95.66-21.63-77.58-21.63,77.58Z" transform="translate(-67.8 -29.03)"/><path class="cls-1" d="M2511.7,341.29a62.43,62.43,0,0,1-25.64-5.08,50.56,50.56,0,0,1-19.55-15.53q-16-20.82-16-57.89,0-24.78,7.31-42.4t21.07-27q13.77-9.39,32.85-9.39a74.33,74.33,0,0,1,17.72,1.93,64.16,64.16,0,0,1,15.9,6.39v21a55,55,0,0,0-16.15-9.45,50.78,50.78,0,0,0-17.57-3.25q-19.8,0-29.75,15.44t-9.95,46.61q0,61.95,39.91,61.95a50.73,50.73,0,0,0,17.56-3.25,55.76,55.76,0,0,0,16-9.45v21a78.48,78.48,0,0,1-16.05,6.3A72.45,72.45,0,0,1,2511.7,341.29Z" transform="translate(-67.8 -29.03)"/><path class="cls-1" d="M2575.48,186.73h20.61v67.43l64.08-67.43h24.07l-59,62L2686,338.35h-24.78l-49.46-76L2596.09,279v59.31h-20.61Z" transform="translate(-67.8 -29.03)"/><path class="cls-1" d="M2706.78,186.73h90V204H2727.3v44.89h66.41v17.26H2727.3v54.94h71.39v17.27h-91.91Z" transform="translate(-67.8 -29.03)"/><path class="cls-1" d="M2826.51,186.73h42.25q25.08,0,38.28,11.27t13.31,32.19a44.32,44.32,0,0,1-2,14.07,32.53,32.53,0,0,1-6.1,10.81q-8,9.56-23,11.68a27.12,27.12,0,0,1,13.51,7.62,50.16,50.16,0,0,1,6.14,8.27q3.3,5.34,7.77,14.27l20.61,41.44h-22l-18.08-38.29a103.9,103.9,0,0,0-7.46-13.61,32.52,32.52,0,0,0-6.55-7.51,20.47,20.47,0,0,0-7.37-3.56,35.13,35.13,0,0,0-9-1.11h-19.6v64.08h-20.62Zm43.06,70.68q14.73,0,21.94-6.6t7.21-20q0-13.31-7.62-20.31a26,26,0,0,0-9.19-5.08,42.35,42.35,0,0,0-13.15-1.82h-21.63v53.82Z" transform="translate(-67.8 -29.03)"/></svg>