<?xml version="1.0" encoding="iso-8859-1"?>
<!-- Generator: Adobe Illustrator 19.0.0, SVG Export Plug-In . SVG Version: 6.00 Build 0)  -->
<svg version="1.1" id="Layer_1" xmlns="http://www.w3.org/2000/svg" xmlns:xlink="http://www.w3.org/1999/xlink" x="0px" y="0px"
	 viewBox="0 0 313.592 313.592" style="enable-background:new 0 0 313.592 313.592;" xml:space="preserve">
<g id="XMLID_1594_">
	<g id="XMLID_1595_">
		<path id="XMLID_590_" style="fill:#FF5959;" d="M306.902,2.493c-2.833-2.052-6.296-2.878-9.751-2.326s-6.488,2.417-8.54,5.25
			L128.94,225.864c-4.237,5.848-2.924,14.055,2.924,18.291c2.833,2.052,6.296,2.878,9.75,2.326c3.455-0.552,6.487-2.417,8.539-5.25
			L309.827,20.782C314.063,14.934,312.751,6.729,306.902,2.493z"/>
		<path id="XMLID_589_" style="fill:#FF5959;" d="M239.425,13.282c-2.833-2.052-6.296-2.878-9.751-2.326s-6.488,2.417-8.54,5.25
			L61.462,236.652c-2.053,2.833-2.879,6.296-2.326,9.751c0.552,3.455,2.417,6.488,5.251,8.54c2.833,2.052,6.296,2.878,9.75,2.326
			c3.455-0.552,6.487-2.417,8.539-5.25L242.349,31.571C246.585,25.723,245.273,17.518,239.425,13.282z"/>
	</g>
	<rect id="XMLID_587_" x="27.475" y="129.306" style="fill:#FFA250;" width="220.948" height="48.006"/>
	<g id="XMLID_1596_">
		<circle id="XMLID_1597_" style="fill:#FFA250;" cx="137.949" cy="113.494" r="31.257"/>
		<circle id="XMLID_1598_" style="fill:#FFA250;" cx="33.107" cy="146.055" r="31.257"/>
		<circle id="XMLID_584_" style="fill:#FFA250;" cx="242.792" cy="146.055" r="31.257"/>
		<circle id="XMLID_1599_" style="fill:#FFE165;" cx="85.528" cy="126.519" r="31.257"/>
		<circle id="XMLID_582_" style="fill:#FFE165;" cx="190.37" cy="126.519" r="31.257"/>
	</g>
	<path id="XMLID_1600_" style="fill:#5FD2DB;" d="M1.28,147.517v19.156c0,75.168,61.501,136.669,136.669,136.669l0,0
		c75.168,0,136.669-61.501,136.669-136.669v-19.156H1.28z"/>
	<path id="XMLID_579_" style="fill:#5FD2DB;" d="M183.645,313.592H92.254c-6.213,0-11.25-5.037-11.25-11.25v-13.374
		c0-6.213,5.037-11.25,11.25-11.25h91.391c6.213,0,11.25,5.037,11.25,11.25v13.374C194.895,308.555,189.858,313.592,183.645,313.592
		z"/>
</g>
<g>
</g>
<g>
</g>
<g>
</g>
<g>
</g>
<g>
</g>
<g>
</g>
<g>
</g>
<g>
</g>
<g>
</g>
<g>
</g>
<g>
</g>
<g>
</g>
<g>
</g>
<g>
</g>
<g>
</g>
</svg>
