<?xml version="1.0" encoding="iso-8859-1"?>
<!-- Generator: Adobe Illustrator 19.0.0, SVG Export Plug-In . SVG Version: 6.00 Build 0)  -->
<svg version="1.1" id="Layer_1" xmlns="http://www.w3.org/2000/svg" xmlns:xlink="http://www.w3.org/1999/xlink" x="0px" y="0px"
	 viewBox="0 0 512 512" style="enable-background:new 0 0 512 512;" xml:space="preserve">
<g>
	<polygon style="fill:#AE7A66;" points="357.922,0 357.922,32.04 256,54.795 154.078,32.04 154.078,0 	"/>
	<polygon style="fill:#AE7A66;" points="443.255,126.453 443.255,512 357.922,512 335.167,115.075 	"/>
</g>
<polygon style="fill:#FFD608;" points="357.922,32.04 443.255,126.453 335.167,126.453 "/>
<polygon style="fill:#FFE76D;" points="357.922,32.04 357.922,126.453 213.333,149.208 68.745,126.453 154.078,32.04 "/>
<polygon style="fill:#FFD608;" points="357.922,126.453 357.922,512 303.172,512 68.745,433.641 68.745,126.453 "/>
<path style="fill:#945136;" d="M303.856,285.844h-4.518c-8.283-28.616-29.36-51.62-56.809-62.09v-50.278
	c-24.439,0-45.386,19.183-54.227,46.455c-42.382,9.512-73.375,47.57-73.375,93.059v91.739L68.745,433.64V512h234.428V313.014
	c0-3.414-0.189-6.783-0.53-10.102h1.214c4.713,0,8.533-3.82,8.533-8.533C312.389,289.665,308.569,285.844,303.856,285.844z"/>
<g>
</g>
<g>
</g>
<g>
</g>
<g>
</g>
<g>
</g>
<g>
</g>
<g>
</g>
<g>
</g>
<g>
</g>
<g>
</g>
<g>
</g>
<g>
</g>
<g>
</g>
<g>
</g>
<g>
</g>
</svg>
