<?xml version="1.0" encoding="iso-8859-1"?>
<!-- Generator: Adobe Illustrator 19.0.0, SVG Export Plug-In . SVG Version: 6.00 Build 0)  -->
<svg version="1.1" id="Layer_1" xmlns="http://www.w3.org/2000/svg" xmlns:xlink="http://www.w3.org/1999/xlink" x="0px" y="0px"
	 viewBox="0 0 511.999 511.999" style="enable-background:new 0 0 511.999 511.999;" xml:space="preserve">
<path style="fill:#5A5A28;" d="M228.303,504.232H419.43c30.957,0,56.053-25.096,56.053-56.053s-25.096-56.053-56.053-56.053H228.303
	"/>
<circle style="fill:#7B7B53;" cx="227.248" cy="448.18" r="56.054"/>
<path style="fill:#5A5A28;" d="M68.153,504.232h63.348c30.957,0,56.053-25.096,56.053-56.053s-25.096-56.053-56.053-56.053H68.153
	c0,0,55,0.995,55,56.053C123.153,499.552,68.153,504.232,68.153,504.232z"/>
<g>
	<path style="fill:#FFFFFF;" d="M427.437,87.843l-2.653,45.099c11.086,5.523,19.749,15.182,23.932,26.965l-282.783,0.006
		c4.18-11.787,12.845-21.448,23.934-26.971l-2.653-45.099H427.437"/>
	<path style="fill:#FFFFFF;" d="M195.222,87.843h-8.01l2.652,45.099c-15.797,7.869-26.675,24.137-26.675,42.984"/>
</g>
<path style="fill:#FA9C1C;" d="M165.932,159.912c-1.775,5.006-2.742,10.395-2.742,16.012c0,20.847,13.302,38.542,31.862,45.191
	l8.175,171.01h208.195l8.175-171.01c18.56-6.649,31.862-24.344,31.862-45.191c0-5.621-0.967-11.012-2.745-16.02"/>
<path style="fill:#FBB049;" d="M165.932,159.912c-1.775,5.006-2.742,10.395-2.742,16.012c0,20.847,13.302,38.542,31.862,45.191
	h224.545c18.56-6.649,31.862-24.344,31.862-45.191c0-5.621-0.967-11.012-2.745-16.02L165.932,159.912z"/>
<rect x="219.242" y="152.138" style="fill:#1D1D1B;" width="16.014" height="15.536"/>
<path style="fill:#FFFFFF;" d="M347.363,15.775c-9.332,0-18.171,2.041-26.167,5.628c-7.336-8.298-17.94-13.635-29.886-13.635
	c-18.05,0-33.131,12.023-38.128,28.439c-5.414-2.732-11.445-4.416-17.924-4.416c-22.112,0-40.037,17.925-40.037,40.037
	s17.925,40.037,40.037,40.037c16.389,0,30.329-9.911,36.497-24.024l139.667,0.001v-8.007
	C411.422,44.457,382.741,15.775,347.363,15.775z"/>
<circle style="fill:#7B7B53;" cx="67.101" cy="448.18" r="56.054"/>
<g>
	<rect x="43.078" y="440.413" style="fill:#FFFFFF;" width="16.014" height="15.536"/>
	<rect x="75.11" y="440.413" style="fill:#FFFFFF;" width="16.014" height="15.536"/>
	<rect x="59.098" y="416.384" style="fill:#FFFFFF;" width="16.014" height="15.536"/>
	<rect x="59.098" y="464.431" style="fill:#FFFFFF;" width="16.014" height="15.536"/>
	<rect x="203.23" y="440.413" style="fill:#FFFFFF;" width="16.014" height="15.536"/>
	<rect x="235.254" y="440.413" style="fill:#FFFFFF;" width="16.014" height="15.536"/>
	<rect x="219.242" y="416.384" style="fill:#FFFFFF;" width="16.014" height="15.536"/>
	<rect x="219.242" y="464.431" style="fill:#FFFFFF;" width="16.014" height="15.536"/>
</g>
<path style="fill:#1D1D1B;" d="M482.779,440.553c-3.777-31.561-30.664-56.12-63.209-56.191l7.553-157.959
	c19.4-9.118,32.105-28.785,32.105-50.478c0-19.528-9.993-37.248-26.402-47.39l2.85-48.461h-16.487v-0.239
	c0-39.605-32.222-71.828-71.828-71.828c-8.331,0-16.483,1.432-24.301,4.265C314.315,4.416,303.014,0,291.31,0
	c-18.228,0-34.389,10.209-42.419,26.11c-4.469-1.387-9.031-2.087-13.633-2.087c-26.36,0-47.805,21.446-47.805,47.805
	c0,2.813,0.258,5.565,0.726,8.246h-9.205l2.85,48.461c-16.409,10.142-26.403,27.861-26.403,47.39
	c0,21.691,12.699,41.355,32.095,50.473l7.639,167.258c-5.708,3.47-10.877,7.829-15.285,12.96
	c-11.713-13.612-29.046-22.257-48.371-22.257H68.153c-35.191,0-63.821,28.63-63.821,63.82s28.63,63.821,63.821,63.821h63.348
	c19.325,0,36.657-8.645,48.37-22.257c11.996,13.963,29.62,22.257,48.432,22.257H419.43c32.509,0,59.401-24.44,63.313-55.908
	l24.616,0.488l0.308-15.533L482.779,440.553z M68.153,496.464c-26.624,0-48.285-21.66-48.285-48.285
	c0-26.623,21.66-48.284,48.285-48.284s48.285,21.66,48.285,48.284C116.437,474.804,94.776,496.464,68.153,496.464z M131.501,496.464
	h-21.687c13.555-11.712,22.158-29.008,22.158-48.285c0-19.277-8.603-36.572-22.158-48.284H131.5
	c26.624,0,48.285,21.66,48.285,48.284C179.786,474.804,158.126,496.464,131.501,496.464z M235.257,39.559
	c4.86,0,9.712,1.206,14.425,3.584l8.242,4.158l2.689-8.831c4.175-13.718,16.512-22.934,30.697-22.934
	c9.242,0,17.789,3.911,24.065,11.012l3.785,4.283l5.214-2.34c7.318-3.282,15.053-4.947,22.988-4.947
	c31.04,0,56.292,25.252,56.292,56.292v0.239l-136.981-0.001l-2.035,4.657c-5.142,11.765-16.675,19.367-29.381,19.367
	c-17.794,0-32.269-14.476-32.269-32.269C202.988,54.035,217.464,39.559,235.257,39.559z M170.958,175.925
	c0-2.813,0.294-5.571,0.849-8.247h31.421v-15.536h-24.494c3.731-5.072,8.677-9.3,14.594-12.247l4.592-2.287l-2.298-39.077
	c8.599,12.723,23.157,21.104,39.635,21.104c17.139,0,32.829-9.278,41.273-24.024L419.2,95.611l-2.471,41.997l4.593,2.287
	c5.916,2.948,10.863,7.176,14.593,12.247H251.272v15.536h191.57c0.555,2.676,0.848,5.434,0.848,8.247
	c0,16.932-10.735,32.153-26.714,37.878l-4.892,1.751l-8.068,168.804H228.303c-6.147,0-12.164,0.894-17.902,2.572l-7.826-171.373
	l-4.902-1.756C181.694,208.079,170.958,192.857,170.958,175.925z M228.303,496.464c-15.762,0-30.405-7.712-39.402-20.409
	c4.11-8.428,6.422-17.886,6.422-27.876c0-9.99-2.312-19.448-6.422-27.876c8.997-12.697,23.638-20.408,39.402-20.408
	c26.624,0,48.285,21.66,48.285,48.284C276.587,474.804,254.927,496.464,228.303,496.464z M419.43,496.464H269.964
	c13.556-11.712,22.159-29.008,22.159-48.285c0-19.277-8.604-36.572-22.158-48.284H419.43c26.624,0,48.285,21.66,48.285,48.284
	C467.714,474.804,446.054,496.464,419.43,496.464z"/>
<g>
</g>
<g>
</g>
<g>
</g>
<g>
</g>
<g>
</g>
<g>
</g>
<g>
</g>
<g>
</g>
<g>
</g>
<g>
</g>
<g>
</g>
<g>
</g>
<g>
</g>
<g>
</g>
<g>
</g>
</svg>
