<?xml version="1.0" encoding="iso-8859-1"?>
<!-- Generator: Adobe Illustrator 18.0.0, SVG Export Plug-In . SVG Version: 6.00 Build 0)  -->
<!DOCTYPE svg PUBLIC "-//W3C//DTD SVG 1.1//EN" "http://www.w3.org/Graphics/SVG/1.1/DTD/svg11.dtd">
<svg version="1.1" id="Capa_1" xmlns="http://www.w3.org/2000/svg" xmlns:xlink="http://www.w3.org/1999/xlink" x="0px" y="0px"
	 viewBox="0 0 331.573 331.573" style="enable-background:new 0 0 331.573 331.573;" xml:space="preserve">
<g>
	<g>
		<path style="fill:#84BD93;" d="M142.58,29.795c-0.142-0.19-0.295-0.391-0.434-0.579C142.286,29.404,142.439,29.604,142.58,29.795z
			"/>
		<path style="fill:#84BD93;" d="M145.478,33.615c-0.311-0.403-0.621-0.806-0.923-1.201
			C144.856,32.809,145.167,33.211,145.478,33.615z"/>
		<path style="fill:#84BD93;" d="M137.971,23.372c-0.185-0.269-0.373-0.541-0.551-0.803
			C137.598,22.832,137.786,23.103,137.971,23.372z"/>
		<path style="fill:#84BD93;" d="M140.004,26.272c-0.21-0.294-0.408-0.576-0.611-0.862
			C139.596,25.696,139.794,25.978,140.004,26.272z"/>
		<path style="fill:#84BD93;" d="M268.078,153.468c1.153,0.785,2.268,1.521,3.339,2.204
			C270.346,154.989,269.231,154.251,268.078,153.468z"/>
		<path style="fill:#84BD93;" d="M148.245,37.16c-0.324-0.408-0.631-0.804-0.946-1.205C147.613,36.356,147.921,36.751,148.245,37.16
			z"/>
		<path style="fill:#84BD93;" d="M220.392,101.203c-29.787-29.787-54.629-50.48-69.454-60.679
			c11.409,14.097,27.466,32.078,47.745,52.357c26.316,26.316,52.23,48.903,69.361,60.563
			C256.641,139.365,240.613,121.423,220.392,101.203z"/>
	</g>
	<path style="fill:#84BD93;" d="M69.338,206.715v11h122.176c4.152,0,7.824,2.044,7.824,6.195v42.895c0,4.152-3.672,7.91-7.824,7.91
		H61.718l0,0h7.62v20h-7.62l0,0h210.62v-88H69.338z"/>
	<rect x="64.338" y="177.715" style="fill:#84BD93;" width="213" height="3"/>
	<rect x="69.338" y="237.715" style="fill:#FDD44B;" width="116" height="24"/>
	<polygon style="fill:#84BD93;" points="64.338,317.715 55.053,317.715 55.053,317.715 277.338,317.715 277.338,312.715 
		64.338,312.715 	"/>
	<path style="fill:#3F2D20;" d="M291.539,188.371v-21.709c0-0.021-0.004-0.04-0.004-0.061c0.396-6.916-5.331-17.308-18.323-34.14
		c-13.31-17.242-32.488-38.588-54.004-60.104c-21.516-21.515-42.861-40.694-60.104-54.004
		c-23.029-17.779-34.011-21.969-40.514-15.46c-6.509,6.506-2.318,17.487,15.457,40.516c13.31,17.243,32.49,38.588,54.004,60.104
		c22.551,22.55,44.983,42.533,62.245,55.632H47.536c-4.151,0-7.517,3.365-7.517,7.517v21.709c0,3.449,2.327,6.35,5.494,7.233v99.508
		c-3.167,0.884-5.494,3.784-5.494,7.233v21.71c0,4.152,3.366,7.517,7.517,7.517h236.486c4.152,0,7.517-3.365,7.517-7.517v-21.71
		c0-3.449-2.326-6.349-5.493-7.233v-99.508C289.214,194.72,291.539,191.82,291.539,188.371z M198.683,92.881
		c-32.171-32.171-53.743-58.583-62.932-72.825c14.244,9.188,40.655,30.761,72.826,62.932c32.063,32.063,53.601,58.407,62.84,72.683
		C254.439,144.842,226.788,120.987,198.683,92.881z M60.547,259.289v-27.86h123.451v27.86H60.547z M271.012,294.828H60.547v-20.505
		h130.968c4.152,0,7.517-3.365,7.517-7.517v-42.894c0-4.152-3.365-7.517-7.517-7.517H60.547v-20.506h210.465V294.828z
		 M276.505,174.179v6.675H55.053v-6.675H276.505z M55.053,309.863h221.452v6.676H55.053V309.863z"/>
</g>
<g>
</g>
<g>
</g>
<g>
</g>
<g>
</g>
<g>
</g>
<g>
</g>
<g>
</g>
<g>
</g>
<g>
</g>
<g>
</g>
<g>
</g>
<g>
</g>
<g>
</g>
<g>
</g>
<g>
</g>
</svg>
