<?xml version="1.0" encoding="iso-8859-1"?>
<!-- Generator: Adobe Illustrator 19.0.0, SVG Export Plug-In . SVG Version: 6.00 Build 0)  -->
<svg version="1.1" id="Layer_1" xmlns="http://www.w3.org/2000/svg" xmlns:xlink="http://www.w3.org/1999/xlink" x="0px" y="0px"
	 viewBox="0 0 512.001 512.001" style="enable-background:new 0 0 512.001 512.001;" xml:space="preserve">
<path style="fill:#E9B84C;" d="M331.48,200.914l-20.046,82.694c-1.074,4.433-4.991,7.569-9.517,7.621l-226.687,2.612
	c-0.038,0-0.076,0-0.114,0c-2.54,0-4.984-0.983-6.827-2.749c-13.364-12.8-23.581-27.942-30.368-45.005
	c-7.109-17.873-5.667-36.237,0.049-55.71c6.281-21.403,17.292-41.013,31.27-58.321c20.55-25.445,33.335-61.149,33.335-100.689
	c0-6.315-0.329-12.532-0.963-18.625c-0.539-5.177,2.376-10.084,7.168-12.021l0,0c4.966-2.01,10.617,0.322,12.768,5.261
	c20.085,46.157,38.186,79.886,55.339,103.118c17.253,23.368,34.173,37.091,51.724,41.955c23.12,6.407,49.548-1.9,83.172-26.145
	c3.075-2.218,7.199-2.512,10.618-0.589c2.039,1.146,3.576,3.042,4.442,5.229c0.354,0.894,0.696,1.789,1.028,2.686
	C335.876,153.887,337.125,177.635,331.48,200.914z"/>
<path style="fill:#D9702B;" d="M86.007,158.192c19.909-21.24,31.104-49.944,31.524-80.826c0.069-5-0.157-10.045-0.67-14.998
	c-0.145-1.394,0.916-2.726,2.64-3.317c0.443-0.151,0.887-0.219,1.316-0.219c1.362,0,2.556,0.687,2.967,1.554
	c17.161,36.163,33.713,61.962,47.712,81.135c34.825,47.697,93.377,34.101,124.209,15.003c1.099-0.681,2.639-0.726,3.829-0.111
	c0.562,0.289,1.007,0.765,1.253,1.336c0.279,0.65,0.551,1.301,0.813,1.953c6.259,15.586,7.031,32.617,2.235,49.249l-18.283,63.393
	c-0.244,0.844-1.381,1.739-3.012,1.739c-0.004,0-0.01,0-0.016,0l-197.038-0.711c-0.906-0.012-1.77-0.319-2.369-0.841
	c-10.849-9.461-19.081-20.568-24.469-33.012c-4.866-11.245-4.627-23.214,0.777-38.807C64.591,185.805,73.534,171.5,86.007,158.192z"
	/>
<path style="fill:#B54222;" d="M106.403,194.509c12.895-13.367,20.299-31.575,20.848-51.272c0.089-3.189-0.2-6.399-0.292-9.574
	c-0.197-6.913,5.668-6.357,7.6-1.2c23.397,62.439,85.794,74.824,105.639,62.926c0.707-0.424,1.69-0.439,2.444-0.036
	c0.356,0.189,0.636,0.498,0.787,0.864c0.173,0.417,0.339,0.835,0.501,1.253c3.851,10.002,4.188,20.873,0.976,31.439l-12.242,40.273
	c-0.164,0.536-0.897,1.096-1.938,1.081c-0.003,0-0.007,0-0.01,0l-125.697-2.28c-0.578-0.017-1.125-0.22-1.503-0.559
	c-6.835-6.136-11.985-13.299-15.309-21.287c-3.002-7.219-2.74-14.852,0.849-24.751C92.488,211.926,98.325,202.882,106.403,194.509z"
	/>
<path style="fill:#C08F39;" d="M480.245,417.392c0,1.955-0.025,3.903-0.073,5.846c-0.151,6.036-5.048,10.85-11.036,10.85H38.711
	c-5.988,0-10.886-4.814-11.036-10.85c-0.049-1.942-0.073-3.891-0.073-5.846c0-125.815,101.528-228.174,226.322-228.174
	S480.245,291.577,480.245,417.392z"/>
<path style="fill:#98642E;" d="M244.208,256.001h-2.529c-6.097,0-11.04-4.983-11.04-11.13c0-6.147,4.943-11.13,11.04-11.13h2.529
	c6.097,0,11.04,4.983,11.04,11.13C255.248,251.018,250.305,256.001,244.208,256.001z M162.311,276.089
	c0-6.147-4.943-11.13-11.04-11.13h-2.529c-6.097,0-11.04,4.983-11.04,11.13c0,6.147,4.943,11.13,11.04,11.13h2.529
	C157.369,287.22,162.311,282.236,162.311,276.089z M212.702,311.653c0-6.147-4.943-11.13-11.04-11.13h-2.529
	c-6.097,0-11.04,4.983-11.04,11.13c0,6.147,4.943,11.13,11.04,11.13h2.529C207.759,322.784,212.702,317.8,212.702,311.653z
	 M322.693,299.38c0-6.147-4.943-11.13-11.04-11.13h-2.529c-6.097,0-11.04,4.983-11.04,11.13s4.943,11.13,11.04,11.13h2.529
	C317.75,310.51,322.693,305.527,322.693,299.38z M112.931,366.986c0-6.147-4.943-11.13-11.04-11.13h-2.529
	c-6.097,0-11.04,4.983-11.04,11.13c0,6.147,4.943,11.13,11.04,11.13h2.529C107.988,378.116,112.931,373.133,112.931,366.986z"/>
<path style="fill:#5A482F;" d="M507.846,422.957c0,6.147-4.799,11.13-10.72,11.13h-89.701l-43.522,72.544
	c-2,3.334-5.583,5.369-9.446,5.369H153.39c-3.864,0-7.446-2.037-9.446-5.369l-43.522-72.544H10.72c-5.92,0-10.72-4.983-10.72-11.13
	s4.799-11.13,10.72-11.13h486.407C503.046,411.827,507.846,416.81,507.846,422.957z"/>
<path style="fill:#7D684D;" d="M100.422,434.088h307.004l-43.522,72.544c-2,3.334-5.583,5.369-9.446,5.369H153.39
	c-3.864,0-7.446-2.037-9.446-5.369L100.422,434.088z"/>
<path style="fill:#612324;" d="M220.705,352.426c89.718,37.855,163.418-17.292,192.489-105.488
	c14.637-44.404,106.037-33.88,98.349,25.237c-8.764,67.366-70.172,131.365-132.476,154.41
	C226.646,482.967,187.588,338.452,220.705,352.426L220.705,352.426z"/>
<path style="fill:#939B48;" d="M480.646,239.865c-1.333,4.957-5.787,8.22-10.648,8.22c-0.956,0-1.928-0.126-2.896-0.391
	c-5.885-1.608-9.362-7.722-7.766-13.656c5.61-20.855,2.127-43.074-9.557-60.957c-3.354-5.133-1.945-12.036,3.148-15.418
	c5.092-3.383,11.94-1.961,15.293,3.173C483.382,184.048,487.912,212.853,480.646,239.865z"/>
<path style="fill:#A04C33;" d="M480.503,261.061c10.783-0.031,17.629,11.487,12.425,21.008
	c-24.613,45.025-69.002,82.849-113.861,99.443c-81.78,30.25-130.922,2.667-153.795-27.238
	c87.647,34.115,159.347-20.64,187.922-107.335c3.281-9.953,10.423-17.141,19.436-21.645c-1.337,2.518-2.065,5.181-2.065,7.943
	c0,15.368,22.243,27.826,49.681,27.826C480.331,261.061,480.417,261.061,480.503,261.061z"/>
<g>
</g>
<g>
</g>
<g>
</g>
<g>
</g>
<g>
</g>
<g>
</g>
<g>
</g>
<g>
</g>
<g>
</g>
<g>
</g>
<g>
</g>
<g>
</g>
<g>
</g>
<g>
</g>
<g>
</g>
</svg>
